<svg height="926" width="720" xmlns="http://www.w3.org/2000/svg">
<rect height="926" fill="#555" width="720"></rect>
<text fill="#7f7" font-family="Courier New" font-size="12" xml:space="preserve">
<tspan x="10" y="26">4 megabytes installed</tspan>
<tspan x="10" y="42"></tspan>
<tspan x="10" y="58">node_modules</tspan>
<tspan x="10" y="74">└─┬ velocity@0.7.2 </tspan>
<tspan x="10" y="90">  ├── colorful@2.1.0 </tspan>
<tspan x="10" y="106">  ├── commander@2.3.0 </tspan>
<tspan x="10" y="122">  ├─┬ tracer@0.7.4 </tspan>
<tspan x="10" y="138">  │ ├── colors@1.0.3 </tspan>
<tspan x="10" y="154">  │ ├─┬ dateformat@1.0.11 </tspan>
<tspan x="10" y="170">  │ │ ├── get-stdin@5.0.1 </tspan>
<tspan x="10" y="186">  │ │ └─┬ meow@3.7.0 </tspan>
<tspan x="10" y="202">  │ │   ├─┬ camelcase-keys@2.1.0 </tspan>
<tspan x="10" y="218">  │ │   │ └── camelcase@2.1.1 </tspan>
<tspan x="10" y="234">  │ │   ├── decamelize@1.2.0 </tspan>
<tspan x="10" y="250">  │ │   ├─┬ loud-rejection@1.6.0 </tspan>
<tspan x="10" y="266">  │ │   │ ├─┬ currently-unhandled@0.4.1 </tspan>
<tspan x="10" y="282">  │ │   │ │ └── array-find-index@1.0.2 </tspan>
<tspan x="10" y="298">  │ │   │ └── signal-exit@3.0.2 </tspan>
<tspan x="10" y="314">  │ │   ├── map-obj@1.0.1 </tspan>
<tspan x="10" y="330">  │ │   ├── minimist@1.2.0 </tspan>
<tspan x="10" y="346">  │ │   ├─┬ normalize-package-data@2.3.6 </tspan>
<tspan x="10" y="362">  │ │   │ ├── hosted-git-info@2.4.2 </tspan>
<tspan x="10" y="378">  │ │   │ ├─┬ is-builtin-module@1.0.0 </tspan>
<tspan x="10" y="394">  │ │   │ │ └── builtin-modules@1.1.1 </tspan>
<tspan x="10" y="410">  │ │   │ ├── semver@5.3.0 </tspan>
<tspan x="10" y="426">  │ │   │ └─┬ validate-npm-package-license@3.0.1 </tspan>
<tspan x="10" y="442">  │ │   │   ├─┬ spdx-correct@1.0.2 </tspan>
<tspan x="10" y="458">  │ │   │   │ └── spdx-license-ids@1.2.2 </tspan>
<tspan x="10" y="474">  │ │   │   └── spdx-expression-parse@1.0.4 </tspan>
<tspan x="10" y="490">  │ │   ├── object-assign@4.1.1 </tspan>
<tspan x="10" y="506">  │ │   ├─┬ read-pkg-up@1.0.1 </tspan>
<tspan x="10" y="522">  │ │   │ ├─┬ find-up@1.1.2 </tspan>
<tspan x="10" y="538">  │ │   │ │ ├── path-exists@2.1.0 </tspan>
<tspan x="10" y="554">  │ │   │ │ └─┬ pinkie-promise@2.0.1 </tspan>
<tspan x="10" y="570">  │ │   │ │   └── pinkie@2.0.4 </tspan>
<tspan x="10" y="586">  │ │   │ └─┬ read-pkg@1.1.0 </tspan>
<tspan x="10" y="602">  │ │   │   ├─┬ load-json-file@1.1.0 </tspan>
<tspan x="10" y="618">  │ │   │   │ ├── graceful-fs@4.1.11 </tspan>
<tspan x="10" y="634">  │ │   │   │ ├─┬ parse-json@2.2.0 </tspan>
<tspan x="10" y="650">  │ │   │   │ │ └─┬ error-ex@1.3.1 </tspan>
<tspan x="10" y="666">  │ │   │   │ │   └── is-arrayish@0.2.1 </tspan>
<tspan x="10" y="682">  │ │   │   │ ├── pify@2.3.0 </tspan>
<tspan x="10" y="698">  │ │   │   │ └─┬ strip-bom@2.0.0 </tspan>
<tspan x="10" y="714">  │ │   │   │   └── is-utf8@0.2.1 </tspan>
<tspan x="10" y="730">  │ │   │   └── path-type@1.1.0 </tspan>
<tspan x="10" y="746">  │ │   ├─┬ redent@1.0.0 </tspan>
<tspan x="10" y="762">  │ │   │ ├─┬ indent-string@2.1.0 </tspan>
<tspan x="10" y="778">  │ │   │ │ └─┬ repeating@2.0.1 </tspan>
<tspan x="10" y="794">  │ │   │ │   └─┬ is-finite@1.0.2 </tspan>
<tspan x="10" y="810">  │ │   │ │     └── number-is-nan@1.0.1 </tspan>
<tspan x="10" y="826">  │ │   │ └─┬ strip-indent@1.0.1 </tspan>
<tspan x="10" y="842">  │ │   │   └── get-stdin@4.0.1 </tspan>
<tspan x="10" y="858">  │ │   └── trim-newlines@1.0.0 </tspan>
<tspan x="10" y="874">  │ └── tinytim@0.1.1 </tspan>
<tspan x="10" y="890">  └─┬ utilx@0.0.5 </tspan>
<tspan x="10" y="906">    └── iconv-lite@0.2.11</tspan>
</text>
</svg>
